<svg width="20" height="20" viewBox="0 0 20 20" fill="none" xmlns="http://www.w3.org/2000/svg">
<path fill-rule="evenodd" clip-rule="evenodd" d="M10 18.3337C14.6024 18.3337 18.3334 14.6027 18.3334 10.0003C18.3334 5.39795 14.6024 1.66699 10 1.66699C5.39765 1.66699 1.66669 5.39795 1.66669 10.0003C1.66669 14.6027 5.39765 18.3337 10 18.3337Z" stroke="#323232" stroke-width="1.5" stroke-linecap="round" stroke-linejoin="round"/>
<path fill-rule="evenodd" clip-rule="evenodd" d="M7.725 5.4541H12.275C13.5283 5.4541 14.545 6.46993 14.545 7.72493V12.2749C14.545 13.5283 13.5292 14.5449 12.2742 14.5449H7.725C6.47083 14.5449 5.45416 13.5291 5.45416 12.2741V7.72493C5.45416 6.47077 6.47083 5.4541 7.725 5.4541Z" stroke="#323232" stroke-width="1.5" stroke-linecap="round" stroke-linejoin="round"/>
<path d="M12.5 7.45801C12.4766 7.45801 12.4583 7.47717 12.4583 7.49967C12.4583 7.52217 12.4766 7.54134 12.5 7.54134C12.5233 7.54134 12.5416 7.52301 12.5416 7.49967C12.5416 7.47717 12.5225 7.45801 12.5 7.45801" stroke="#323232" stroke-width="1.5" stroke-linecap="round" stroke-linejoin="round"/>
<path d="M11.1783 8.82113C11.8292 9.47197 11.8292 10.527 11.1783 11.1778C10.5275 11.8286 9.47252 11.8286 8.82168 11.1778C8.17085 10.527 8.17085 9.47197 8.82168 8.82113C9.47252 8.1703 10.5275 8.1703 11.1783 8.82113" stroke="#323232" stroke-width="1.5" stroke-linecap="round" stroke-linejoin="round"/>
</svg>
