<svg width="32" height="32" viewBox="0 0 32 32" fill="none" xmlns="http://www.w3.org/2000/svg">
<path fill-rule="evenodd" clip-rule="evenodd" d="M23.0352 8.03065V8.03065C26.9208 11.9163 26.9208 18.2161 23.0352 22.1017L17.6576 27.4793C16.742 28.395 15.2574 28.395 14.3418 27.4793L8.96416 22.1017C5.07855 18.2161 5.07855 11.9163 8.96416 8.03065V8.03065C12.8498 4.14503 19.1496 4.14503 23.0352 8.03065Z" stroke="#323232" stroke-width="1.5" stroke-linecap="round" stroke-linejoin="round"/>
<path fill-rule="evenodd" clip-rule="evenodd" d="M23.0352 8.03065V8.03065C26.9208 11.9163 26.9208 18.2161 23.0352 22.1017L17.6576 27.4793C16.742 28.395 15.2574 28.395 14.3418 27.4793L8.96416 22.1017C5.07855 18.2161 5.07855 11.9163 8.96416 8.03065V8.03065C12.8498 4.14503 19.1496 4.14503 23.0352 8.03065Z" stroke="#323232" stroke-width="1.5" stroke-linecap="round" stroke-linejoin="round"/>
<circle cx="16" cy="15.0653" r="3.4139" stroke="#323232" stroke-width="1.5" stroke-linecap="round" stroke-linejoin="round"/>
</svg>
