<svg width="20" height="20" viewBox="0 0 20 20" fill="none" xmlns="http://www.w3.org/2000/svg">
<path fill-rule="evenodd" clip-rule="evenodd" d="M10 18.3337C14.6024 18.3337 18.3334 14.6027 18.3334 10.0003C18.3334 5.39795 14.6024 1.66699 10 1.66699C5.39765 1.66699 1.66669 5.39795 1.66669 10.0003C1.66669 14.6027 5.39765 18.3337 10 18.3337Z" stroke="#323232" stroke-width="1.5" stroke-linecap="round" stroke-linejoin="round"/>
<path d="M9.68105 5.9675C10.1746 5.95996 10.6645 5.96388 11.1541 5.95996C11.1704 6.57227 11.4188 7.12337 11.814 7.53158L11.8134 7.53098C12.2388 7.91416 12.7923 8.16258 13.4025 8.20478L13.411 8.20539V9.72364C12.8345 9.70917 12.2925 9.57622 11.8038 9.3477L11.8285 9.35795C11.5921 9.24429 11.3923 9.12762 11.2023 8.99738L11.218 9.00763C11.2144 10.1077 11.2216 11.2078 11.2105 12.304C11.1794 12.8627 10.9937 13.3722 10.6958 13.7975L10.7019 13.7882C10.2038 14.5015 9.39706 14.9697 8.47965 14.9974H8.47543C8.43835 14.9992 8.39463 15.0002 8.35062 15.0002C7.82906 15.0002 7.34156 14.8548 6.92612 14.6025L6.93818 14.6094C6.18207 14.1545 5.66051 13.3761 5.56404 12.4707L5.56283 12.4584C5.55529 12.2699 5.55167 12.0815 5.55921 11.897C5.70694 10.4562 6.91406 9.34167 8.38137 9.34167C8.54628 9.34167 8.70787 9.35584 8.86494 9.38267L8.84806 9.38026C8.8556 9.93769 8.83299 10.4954 8.83299 11.0529C8.70546 11.0067 8.55834 10.9799 8.40488 10.9799C7.84172 10.9799 7.36267 11.3399 7.1854 11.8424L7.18268 11.8515C7.14259 11.9802 7.11937 12.1282 7.11937 12.2814C7.11937 12.3435 7.12329 12.405 7.13053 12.4653L7.12992 12.4581C7.23002 13.0749 7.75881 13.5404 8.39644 13.5404C8.41483 13.5404 8.43292 13.5401 8.45101 13.5392H8.4483C8.88936 13.5259 9.27224 13.2886 9.48871 12.938L9.49172 12.9326C9.57222 12.8204 9.62739 12.6848 9.64578 12.5374L9.64608 12.5331C9.68376 11.8587 9.66869 11.1882 9.67231 10.5138C9.67593 8.99557 9.66869 7.48093 9.67985 5.96659L9.68105 5.9675Z" fill="black"/>
</svg>
