<svg width="32" height="32" viewBox="0 0 32 32" fill="none" xmlns="http://www.w3.org/2000/svg">
<path d="M24.4853 7.51472C29.1716 12.201 29.1716 19.799 24.4853 24.4853C19.799 29.1715 12.201 29.1715 7.51478 24.4853C2.82849 19.799 2.82849 12.201 7.51478 7.51472C12.2011 2.82843 19.799 2.82843 24.4853 7.51472" stroke="#323232" stroke-width="1.5" stroke-linecap="round" stroke-linejoin="round"/>
<path d="M22.6667 12.3187C22.14 12.9654 21.42 13.332 20.6667 13.332C19.9134 13.332 19.2134 12.9654 18.6667 12.3187" stroke="#323232" stroke-width="1.5" stroke-linecap="round" stroke-linejoin="round"/>
<path d="M13.3333 12.3187C12.8066 12.9654 12.0866 13.332 11.3333 13.332C10.58 13.332 9.87998 12.9654 9.33331 12.3187" stroke="#323232" stroke-width="1.5" stroke-linecap="round" stroke-linejoin="round"/>
<path d="M20.6666 19.5835C20.6666 19.5835 18.916 21.3328 16 21.3328C13.0826 21.3328 11.3333 19.5835 11.3333 19.5835" stroke="#323232" stroke-width="1.5" stroke-linecap="round" stroke-linejoin="round"/>
</svg>
