<svg width="32" height="32" viewBox="0 0 32 32" fill="none" xmlns="http://www.w3.org/2000/svg">
<path d="M18.0933 23.3337H21.6666" stroke="#323232" stroke-width="1.5" stroke-linecap="round" stroke-linejoin="round"/>
<path d="M19.88 23.3337V16.667L17.9333 18.427" stroke="#323232" stroke-width="1.5" stroke-linecap="round" stroke-linejoin="round"/>
<path d="M28 11.9997H4" stroke="#323232" stroke-width="1.5" stroke-linecap="round" stroke-linejoin="round"/>
<path d="M10.6667 3.84082V6.82749" stroke="#323232" stroke-width="1.5" stroke-linecap="round" stroke-linejoin="round"/>
<path d="M21.3334 3.84082V6.82749" stroke="#323232" stroke-width="1.5" stroke-linecap="round" stroke-linejoin="round"/>
<path fill-rule="evenodd" clip-rule="evenodd" d="M24 27.9997H8C5.79067 27.9997 4 26.209 4 23.9997V9.33301C4 7.12367 5.79067 5.33301 8 5.33301H24C26.2093 5.33301 28 7.12367 28 9.33301V23.9997C28 26.209 26.2093 27.9997 24 27.9997Z" stroke="#323232" stroke-width="1.5" stroke-linecap="round" stroke-linejoin="round"/>
<path d="M11 17.947C11.212 17.2137 11.86 16.667 12.6613 16.667C13.632 16.667 14.42 17.4537 14.42 18.4257C14.42 19.295 13.7147 20.0003 12.8453 20.0003C13.7147 20.0003 14.42 20.7057 14.42 21.575C14.42 22.5457 13.6333 23.3337 12.6613 23.3337C11.86 23.3337 11.212 22.787 11 22.0537" stroke="#323232" stroke-width="1.5" stroke-linecap="round" stroke-linejoin="round"/>
</svg>
