<svg width="24" height="24" viewBox="0 0 24 24" fill="none" xmlns="http://www.w3.org/2000/svg">
<path d="M14.7009 21.2227L14.7118 21.2303C15.6563 21.8317 16.7777 22.0928 17.8906 21.9706C19.0036 21.8484 20.0415 21.3501 20.833 20.5581L21.5205 19.8706C21.6729 19.7183 21.7937 19.5375 21.8762 19.3385C21.9586 19.1395 22.0011 18.9262 22.0011 18.7108C22.0011 18.4954 21.9586 18.2821 21.8762 18.0832C21.7937 17.8842 21.6729 17.7034 21.5205 17.5511L18.6206 14.6534C18.4684 14.5011 18.2876 14.3802 18.0886 14.2977C17.8896 14.2153 17.6763 14.1728 17.4609 14.1728C17.2455 14.1728 17.0322 14.2153 16.8332 14.2977C16.6342 14.3802 16.4534 14.5011 16.3012 14.6534C15.9937 14.9608 15.5767 15.1335 15.142 15.1335C14.7072 15.1335 14.2902 14.9608 13.9828 14.6534L9.34604 10.0156C9.03866 9.70811 8.86599 9.29115 8.86599 8.85639C8.86599 8.42163 9.03866 8.00467 9.34604 7.69721C9.4984 7.54494 9.61926 7.36415 9.70172 7.16516C9.78419 6.96616 9.82663 6.75287 9.82663 6.53747C9.82663 6.32207 9.78419 6.10878 9.70172 5.90979C9.61926 5.7108 9.4984 5.53 9.34604 5.37774L6.44725 2.48005C6.13978 2.17267 5.72282 2 5.28806 2C4.85331 2 4.43635 2.17267 4.12888 2.48005L3.44025 3.16758C2.64843 3.95915 2.15036 4.99717 2.02833 6.11012C1.90631 7.22308 2.16763 8.34436 2.76912 9.28869L2.77568 9.29962C5.9523 13.9995 10.0004 18.0469 14.7009 21.2227V21.2227Z" stroke="black" stroke-width="2" stroke-linecap="round" stroke-linejoin="round"/>
</svg>
