<svg width="32" height="32" viewBox="0 0 32 32" fill="none" xmlns="http://www.w3.org/2000/svg">
<path fill-rule="evenodd" clip-rule="evenodd" d="M25.2867 22.147L23.7227 20.5829C22.9414 19.8016 21.6747 19.8016 20.8947 20.5829L19.6654 21.8123C19.3907 22.0869 18.9747 22.1789 18.6201 22.0229C16.8387 21.2429 15.0787 20.0603 13.5094 18.4909C11.9467 16.9283 10.7681 15.1763 9.98672 13.4016C9.82405 13.0349 9.91872 12.6043 10.2027 12.3203L11.3041 11.219C12.1987 10.3243 12.1987 9.05895 11.4174 8.27762L9.85339 6.71362C8.81205 5.67228 7.12405 5.67228 6.08272 6.71362L5.21339 7.58162C4.22539 8.56962 3.81339 9.99495 4.08005 11.4083C4.73872 14.8923 6.76272 18.7069 10.0281 21.9723C13.2934 25.2376 17.1081 27.2616 20.5921 27.9203C22.0054 28.1869 23.4307 27.7749 24.4187 26.7869L25.2867 25.9189C26.3281 24.8776 26.3281 23.1896 25.2867 22.147V22.147Z" stroke="#323232" stroke-width="1.5" stroke-linecap="round" stroke-linejoin="round"/>
<path d="M17.3334 9.32374C18.708 9.30507 20.0894 9.8144 21.1387 10.8637" stroke="#323232" stroke-width="1.5" stroke-linecap="round" stroke-linejoin="round"/>
<path d="M24.9094 7.09179C22.8174 4.99979 20.0747 3.95312 17.3334 3.95312" stroke="#323232" stroke-width="1.5" stroke-linecap="round" stroke-linejoin="round"/>
<path d="M22.6787 14.6676C22.6973 13.293 22.188 11.9116 21.1387 10.8623" stroke="#323232" stroke-width="1.5" stroke-linecap="round" stroke-linejoin="round"/>
<path d="M24.9094 7.09082C27.0014 9.18282 28.048 11.9255 28.048 14.6668" stroke="#323232" stroke-width="1.5" stroke-linecap="round" stroke-linejoin="round"/>
</svg>
