<svg width="32" height="32" viewBox="0 0 32 32" fill="none" xmlns="http://www.w3.org/2000/svg">
<path d="M20.0334 22.6719V25.671C20.0334 26.3528 20.4186 26.9761 21.0284 27.281L21.6936 27.6136C22.7259 28.1297 23.9409 28.1297 24.9731 27.6136L25.6384 27.281C26.2482 26.9761 26.6334 26.3528 26.6334 25.671V22.6719" stroke="#323232" stroke-width="1.5" stroke-linecap="round" stroke-linejoin="round"/>
<path fill-rule="evenodd" clip-rule="evenodd" d="M17.8741 21.5552L21.9557 23.6651C22.8198 24.1118 23.8469 24.1118 24.711 23.6651L28.7925 21.5552C29.1248 21.3835 29.3334 21.0408 29.3334 20.6668C29.3334 20.2928 29.1248 19.9501 28.7925 19.7784L24.711 17.6685C23.8469 17.2218 22.8198 17.2218 21.9557 17.6685L17.8741 19.7784C17.5419 19.9501 17.3333 20.2928 17.3333 20.6668C17.3333 21.0408 17.5419 21.3835 17.8741 21.5552Z" stroke="#323232" stroke-width="1.5" stroke-linecap="round" stroke-linejoin="round"/>
<path d="M29.3334 20.6797V22.9957" stroke="#323232" stroke-width="1.5" stroke-linecap="round" stroke-linejoin="round"/>
<path d="M26.6667 13.3333V8C26.6667 5.79086 24.8758 4 22.6667 4H8C5.79086 4 4 5.79086 4 8V24C4 26.2091 5.79086 28 8 28H14.6667" stroke="#323232" stroke-width="1.5" stroke-linecap="round" stroke-linejoin="round"/>
<path d="M9.33331 10.6667H21.3333" stroke="#323232" stroke-width="1.5" stroke-linecap="round" stroke-linejoin="round"/>
<path d="M9.33331 16.0002H14.6666" stroke="#323232" stroke-width="1.5" stroke-linecap="round" stroke-linejoin="round"/>
<path d="M9.33331 21.3332H12" stroke="#323232" stroke-width="1.5" stroke-linecap="round" stroke-linejoin="round"/>
</svg>
